<svg width="17" height="17" viewBox="0 0 17 17" fill="none" xmlns="http://www.w3.org/2000/svg">
<path d="M11.475 12.75C11.8292 12.75 12.1302 12.626 12.3781 12.3781C12.626 12.1302 12.75 11.8292 12.75 11.475C12.75 11.1208 12.626 10.8198 12.3781 10.5719C12.1302 10.324 11.8292 10.2 11.475 10.2C11.1208 10.2 10.8198 10.324 10.5719 10.5719C10.324 10.8198 10.2 11.1208 10.2 11.475C10.2 11.8292 10.324 12.1302 10.5719 12.3781C10.8198 12.626 11.1208 12.75 11.475 12.75ZM3.825 12.75C4.17917 12.75 4.48021 12.626 4.72813 12.3781C4.97604 12.1302 5.1 11.8292 5.1 11.475C5.1 11.1208 4.97604 10.8198 4.72813 10.5719C4.48021 10.324 4.17917 10.2 3.825 10.2C3.47083 10.2 3.16979 10.324 2.92188 10.5719C2.67396 10.8198 2.55 11.1208 2.55 11.475C2.55 11.8292 2.67396 12.1302 2.92188 12.3781C3.16979 12.626 3.47083 12.75 3.825 12.75ZM12.75 8.5C11.5742 8.5 10.5719 8.08563 9.74313 7.25688C8.91438 6.42813 8.5 5.42583 8.5 4.25C8.5 3.08833 8.91083 2.08958 9.7325 1.25375C10.5542 0.417917 11.56 0 12.75 0C13.9258 0 14.9281 0.414375 15.7569 1.24313C16.5856 2.07188 17 3.07417 17 4.25C17 5.42583 16.5856 6.42813 15.7569 7.25688C14.9281 8.08563 13.9258 8.5 12.75 8.5ZM12.325 5.1H13.175V1.7H12.325V5.1ZM12.75 6.8C12.8633 6.8 12.9625 6.7575 13.0475 6.6725C13.1325 6.5875 13.175 6.48833 13.175 6.375C13.175 6.26167 13.1325 6.1625 13.0475 6.0775C12.9625 5.9925 12.8633 5.95 12.75 5.95C12.6367 5.95 12.5375 5.9925 12.4525 6.0775C12.3675 6.1625 12.325 6.26167 12.325 6.375C12.325 6.48833 12.3675 6.5875 12.4525 6.6725C12.5375 6.7575 12.6367 6.8 12.75 6.8ZM0.85 17C0.609167 17 0.407292 16.9185 0.244375 16.7556C0.0814583 16.5927 0 16.3908 0 16.15V9.35L1.785 4.25C1.87 3.995 2.02229 3.78958 2.24188 3.63375C2.46146 3.47792 2.70583 3.4 2.975 3.4H6.86375C6.82125 3.68333 6.8 3.96667 6.8 4.25C6.8 4.53333 6.82125 4.81667 6.86375 5.1H3.2725L2.38 7.65H7.88375C8.45042 8.4575 9.15875 9.08438 10.0088 9.53063C10.8588 9.97688 11.7725 10.2 12.75 10.2C13.1892 10.2 13.6248 10.154 14.0569 10.0619C14.489 9.96979 14.9033 9.82458 15.3 9.62625V16.15C15.3 16.3908 15.2185 16.5927 15.0556 16.7556C14.8927 16.9185 14.6908 17 14.45 17H13.6C13.3592 17 13.1573 16.9185 12.9944 16.7556C12.8315 16.5927 12.75 16.3908 12.75 16.15V15.3H2.55V16.15C2.55 16.3908 2.46854 16.5927 2.30563 16.7556C2.14271 16.9185 1.94083 17 1.7 17H0.85Z" fill="#FF9776"/>
</svg>
