<svg width="17" height="17" viewBox="0 0 17 17" fill="none" xmlns="http://www.w3.org/2000/svg">
<path d="M2 5.5H13V3.5H2V5.5ZM2 16C1.5875 16 1.23437 15.8531 0.940625 15.5594C0.646875 15.2656 0.5 14.9125 0.5 14.5V3.5C0.5 3.09722 0.649306 2.74653 0.947917 2.44792C1.24653 2.14931 1.59722 2 2 2H3.5V0H5V2H10V0H11.5V2H13C13.4028 2 13.7535 2.14931 14.0521 2.44792C14.3507 2.74653 14.5 3.09722 14.5 3.5V7.875C14.2639 7.77778 14.0206 7.70139 13.7702 7.64583C13.5197 7.59028 13.2629 7.54861 13 7.52083V7H2V14.5H7.20833C7.27778 14.7778 7.37153 15.0382 7.48958 15.2812C7.60764 15.5243 7.74306 15.7639 7.89583 16H2ZM12.4952 17C11.3873 17 10.4444 16.6095 9.66667 15.8285C8.88889 15.0477 8.5 14.1033 8.5 12.9952C8.5 11.8873 8.89049 10.9444 9.67146 10.1667C10.4523 9.38889 11.3967 9 12.5048 9C13.6127 9 14.5556 9.39049 15.3333 10.1715C16.1111 10.9523 16.5 11.8967 16.5 13.0048C16.5 14.1127 16.1095 15.0556 15.3285 15.8333C14.5477 16.6111 13.6033 17 12.4952 17ZM13.6458 14.8542L14.3542 14.1458L13 12.7917V11H12V13.2083L13.6458 14.8542Z" fill="#111111"/>
</svg>
