<svg width="18" height="17" viewBox="0 0 18 17" fill="none" xmlns="http://www.w3.org/2000/svg">
<path d="M9 17C7.94366 17 6.95423 16.7945 6.03169 16.3836C5.10916 15.9726 4.30634 15.4175 3.62324 14.7182C2.94014 14.0189 2.39789 13.197 1.99648 12.2525C1.59507 11.3081 1.39437 10.2952 1.39437 9.21374C1.39437 8.13232 1.59507 7.11938 1.99648 6.17494C2.39789 5.23049 2.94014 4.40861 3.62324 3.70929C4.30634 3.00997 5.10916 2.45483 6.03169 2.04389C6.95423 1.63295 7.94366 1.42748 9 1.42748C10.0563 1.42748 11.0458 1.63295 11.9683 2.04389C12.8908 2.45483 13.6937 3.00997 14.3768 3.70929C15.0599 4.40861 15.6021 5.23049 16.0035 6.17494C16.4049 7.11938 16.6056 8.13232 16.6056 9.21374C16.6056 10.2952 16.4049 11.3081 16.0035 12.2525C15.6021 13.197 15.0599 14.0189 14.3768 14.7182C13.6937 15.4175 12.8908 15.9726 11.9683 16.3836C11.0458 16.7945 10.0563 17 9 17ZM11.3662 12.8473L12.5493 11.6361L9.84507 8.86768V4.88804H8.15493V9.5598L11.3662 12.8473ZM3.59155 0L4.77465 1.2112L1.1831 4.88804L0 3.67684L3.59155 0ZM14.4085 0L18 3.67684L16.8169 4.88804L13.2254 1.2112L14.4085 0Z" fill="#FF9776"/>
</svg>
