<svg width="56" height="56" viewBox="0 0 56 56" fill="none" xmlns="http://www.w3.org/2000/svg">
<rect x="0.25" y="0.25" width="55.5" height="55.5" rx="19.75" fill="white"/>
<rect x="0.25" y="0.25" width="55.5" height="55.5" rx="19.75" stroke="#DDDDDD" stroke-width="0.5"/>
<g clip-path="url(#clip0_608_4061)">
<path d="M12.7216 39.4262L14.3093 42.1544C14.6392 42.7288 15.1134 43.18 15.6701 43.5082L21.3402 33.7441H10C10 34.38 10.1649 35.0159 10.4948 35.5903L12.7216 39.4262Z" fill="#0066DA"/>
<path d="M28 22.2563L22.3299 12.4922C21.7732 12.8204 21.299 13.2717 20.9691 13.846L10.4948 31.8973C10.171 32.4593 10.0004 33.0957 10 33.7435H21.3402L28 22.2563Z" fill="#00AC47"/>
<path d="M40.3301 43.5082C40.8868 43.18 41.361 42.7288 41.6909 42.1544L42.3507 41.0262L45.5054 35.5903C45.8353 35.0159 46.0002 34.38 46.0002 33.7441H34.6592L37.0724 38.4621L40.3301 43.5082Z" fill="#EA4335"/>
<path d="M28.0002 22.2564L33.6703 12.4923C33.1136 12.1641 32.4744 12 31.8146 12H24.1857C23.526 12 22.8868 12.1846 22.3301 12.4923L28.0002 22.2564Z" fill="#00832D"/>
<path d="M34.6596 33.7441H21.34L15.6699 43.5082C16.2266 43.8364 16.8658 44.0006 17.5256 44.0006H38.474C39.1338 44.0006 39.773 43.8159 40.3297 43.5082L34.6596 33.7441Z" fill="#2684FC"/>
<path d="M40.268 22.8717L35.0309 13.846C34.701 13.2717 34.2268 12.8204 33.6701 12.4922L28 22.2563L34.6598 33.7435H45.9794C45.9794 33.1076 45.8144 32.4717 45.4845 31.8973L40.268 22.8717Z" fill="#FFBA00"/>
</g>
<defs>
<clipPath id="clip0_608_4061">
<rect width="36" height="32" fill="white" transform="translate(10 12)"/>
</clipPath>
</defs>
</svg>
